<?xml version="1.0" encoding="UTF-8" standalone="no"?>
<svg
   xmlns:dc="http://purl.org/dc/elements/1.1/"
   xmlns:cc="http://creativecommons.org/ns#"
   xmlns:rdf="http://www.w3.org/1999/02/22-rdf-syntax-ns#"
   xmlns:svg="http://www.w3.org/2000/svg"
   xmlns="http://www.w3.org/2000/svg"
   xmlns:sodipodi="http://sodipodi.sourceforge.net/DTD/sodipodi-0.dtd"
   xmlns:inkscape="http://www.inkscape.org/namespaces/inkscape"
   width="38.137341mm"
   height="38.137341mm"
   viewBox="0 0 38.137341 38.13734"
   version="1.1"
   id="svg915"
   inkscape:version="1.0.2 (e86c870879, 2021-01-15, custom)"
   sodipodi:docname="favicon.svg"
   inkscape:export-filename="C:\Users\kevin\Downloads\favicon.png"
   inkscape:export-xdpi="10.656223"
   inkscape:export-ydpi="10.656223">
  <defs
     id="defs909" />
  <sodipodi:namedview
     id="base"
     pagecolor="#ffffff"
     bordercolor="#666666"
     borderopacity="1.0"
     inkscape:pageopacity="0.0"
     inkscape:pageshadow="2"
     inkscape:zoom="3.9539586"
     inkscape:cx="53.699731"
     inkscape:cy="76.76217"
     inkscape:document-units="mm"
     inkscape:current-layer="layer1"
     inkscape:document-rotation="0"
     showgrid="false"
     inkscape:window-width="1920"
     inkscape:window-height="1017"
     inkscape:window-x="1912"
     inkscape:window-y="-8"
     inkscape:window-maximized="1" />
  <metadata
     id="metadata912">
    <rdf:RDF>
      <cc:Work
         rdf:about="">
        <dc:format>image/svg+xml</dc:format>
        <dc:type
           rdf:resource="http://purl.org/dc/dcmitype/StillImage" />
        <dc:title></dc:title>
      </cc:Work>
    </rdf:RDF>
  </metadata>
  <g
     inkscape:label="Calque 1"
     inkscape:groupmode="layer"
     id="layer1"
     transform="translate(-74.881899,-40.65156)">
    <g
       id="E"
       transform="matrix(0.06883347,0,0,0.06983915,27.33014,-7.8228167)"
       style="clip-rule:evenodd;fill:#003a94;fill-opacity:1;fill-rule:evenodd;stroke-width:0.999803;stroke-linejoin:round;stroke-miterlimit:4;stroke-dasharray:none">
      <path
         d="m 717.62,749.618 c -0.207,-1.034 -0.343,-2.047 -0.411,-3.038 l -1.225,-19.771 c -0.716,-9.089 2.083,-16.816 8.399,-23.179 6.315,-6.363 14.215,-9.544 23.7,-9.544 h 438.687 c 6.81,0 11.67,6.363 18.65,14.998 6.98,8.636 10.9,16.589 11.77,23.861 l 1.38,25.906 c 0.27,7.272 -2.74,13.521 -9.03,18.748 -6.29,5.226 -13.74,7.84 -22.33,7.84 0,0 -165.01,-0.772 -279.925,-1.31 -28.721,-0.134 -56.312,11.016 -76.669,30.985 -20.356,19.969 -31.801,47.109 -31.801,75.417 0,0 0,0.001 0,0.002 0,22.367 9.033,43.815 25.106,59.606 16.072,15.792 37.86,24.628 60.554,24.558 50.632,-0.155 104.93,-0.322 104.93,-0.322 6.255,0.101 13.195,3.055 20.825,8.864 7.62,5.809 13.07,12.358 16.33,19.651 0.05,0.1 0.16,0.33 0.34,0.65 15.68,34.06 50.11,55.93 88.05,55.93 34.25,0.03 71.82,0.03 71.82,0.03 6.81,0 13.35,3.43 19.61,10.3 6.25,6.87 10.32,14.2 12.2,21.98 0.45,1.84 0.74,3.67 0.89,5.5 l 0.35,109.91 c 0.14,9.15 -3.31,16.94 -10.36,23.35 -7.04,6.41 -14.42,9.62 -22.12,9.62 l -436.48,-1.37 c -6.224,0 -12.68,-3.41 -19.367,-10.22 -6.688,-6.82 -10.966,-14.09 -12.835,-21.82 -0.44,-1.82 -0.731,-3.63 -0.874,-5.45 l -0.072,-51.47 h -0.092 z"
         style="fill:#003a94;fill-opacity:1;fill-rule:nonzero;stroke-width:0.999803;stroke-miterlimit:4;stroke-dasharray:none"
         id="path7" />
    </g>
  </g>
</svg>
