<?xml version="1.0" encoding="UTF-8" standalone="no"?>
<svg
   xmlns:dc="http://purl.org/dc/elements/1.1/"
   xmlns:cc="http://creativecommons.org/ns#"
   xmlns:rdf="http://www.w3.org/1999/02/22-rdf-syntax-ns#"
   xmlns:svg="http://www.w3.org/2000/svg"
   xmlns="http://www.w3.org/2000/svg"
   xmlns:sodipodi="http://sodipodi.sourceforge.net/DTD/sodipodi-0.dtd"
   xmlns:inkscape="http://www.inkscape.org/namespaces/inkscape"
   width="100%"
   height="100%"
   viewBox="0 0 640 160"
   version="1.1"
   xml:space="preserve"
   style="fill-rule:evenodd;clip-rule:evenodd;stroke-linejoin:round;stroke-miterlimit:2;"
   id="svg10"
   sodipodi:docname="logo.svg"
   inkscape:version="1.0.2 (e86c870879, 2021-01-15, custom)"><metadata
   id="metadata16"><rdf:RDF><cc:Work
       rdf:about=""><dc:format>image/svg+xml</dc:format><dc:type
         rdf:resource="http://purl.org/dc/dcmitype/StillImage" /><dc:title></dc:title></cc:Work></rdf:RDF></metadata><defs
   id="defs14" /><sodipodi:namedview
   pagecolor="#ffffff"
   bordercolor="#666666"
   borderopacity="1"
   objecttolerance="10"
   gridtolerance="10"
   guidetolerance="10"
   inkscape:pageopacity="0"
   inkscape:pageshadow="2"
   inkscape:window-width="1920"
   inkscape:window-height="1017"
   id="namedview12"
   showgrid="false"
   inkscape:zoom="2"
   inkscape:cx="322.19373"
   inkscape:cy="38.149762"
   inkscape:window-x="1912"
   inkscape:window-y="-8"
   inkscape:window-maximized="1"
   inkscape:current-layer="svg10" />
    <g
   transform="matrix(0.165715,0,0,0.165715,110.601,-132.566)"
   id="g5"
   style="fill:#141414;fill-opacity:1">
        <g
   id="EkinOf"
   style="fill:#141414;fill-opacity:1">
            <path
   d="M2647.14,1642.18C2642.3,1643.88 2637.59,1644.73 2633.02,1644.73L1963.97,1644.73C1954.29,1644.73 1946.62,1640.75 1940.97,1632.79C1935.32,1624.83 1933.34,1614.88 1935.04,1602.94C1935.6,1598.96 1936.75,1594.98 1938.48,1591L2172.8,977.065C2177.88,963.133 2187.38,950.197 2201.28,938.257C2215.18,926.318 2227.75,920.348 2238.99,920.348L2907.64,920.348C2917.33,920.348 2924.99,924.328 2930.64,932.288C2936.3,940.247 2938.27,950.199 2936.57,962.144C2936.01,966.119 2934.86,970.099 2933.13,974.084L2923.35,999.714L2923.36,999.714L2836.34,1227.64L2838.09,1226.45L2909.66,1226.45L2936.68,1156.91C2972.34,1065.18 3036.69,1019.46 3129.53,1019.46C3152.9,1019.46 3170.14,1025.29 3181.59,1036.14C3194.63,1048.77 3197.87,1063.41 3191.41,1080.03C3181.02,1106.76 3165.6,1117.12 3147.31,1113.86C3142.3,1112.97 3137.29,1110.3 3132.5,1105.48C3126.79,1099.74 3121.14,1090.56 3115.78,1077.69C3110.27,1063.9 3102.99,1056.22 3092.54,1056.22C3069.96,1056.22 3052.19,1063.21 3039.25,1077.77C3028.73,1089.02 3018.26,1108.56 3007.52,1136.19L2972.44,1226.45L3063.52,1226.45L3070.93,1237.28L3060.32,1264.56L3052.91,1269.63L2956.46,1269.63L2851.79,1538.94C2844.6,1557.42 2840.24,1572.28 2838.81,1583.55C2838.03,1589.78 2838.07,1594.69 2839.41,1598.27C2841.22,1603.15 2846.05,1606.53 2853.19,1609.26C2862.36,1612.78 2874.97,1614.81 2890.99,1615.57L2898.03,1626.38L2892.73,1640.02L2885.32,1645.09L2649.13,1645.09L2647.14,1642.18ZM1187.5,1645.09L1180.09,1634.26L1185.39,1620.62L1192.8,1615.56C1192.8,1615.56 1201.62,1615.56 1201.62,1615.56C1205.31,1615.56 1209.73,1613.64 1215.08,1610.39C1220.01,1607.11 1223.5,1603.07 1225.41,1598.16C1225.8,1597.15 1225.44,1595.61 1225.09,1593.52C1224.14,1587.93 1221.63,1580.2 1217.67,1570.29L1217.63,1570.18L1163.8,1429.01L1107.98,1572.63C1102.95,1585.58 1101.88,1595.58 1106.55,1602.69C1111.32,1609.96 1121.38,1613.47 1135.98,1614.78L1146.09,1615.58L1152.87,1626.38L1147.57,1640.02L1140.16,1645.09L931.166,1645.09L929.726,1642.99C925.656,1644.15 921.744,1644.73 917.992,1644.73L348,1642.95C339.862,1642.95 333.103,1638.49 327.723,1629.58C322.343,1620.67 320.337,1611.16 321.706,1601.06C322.028,1598.68 322.543,1596.3 323.253,1593.93L376.871,1451.31C381.275,1438.84 389.058,1428.59 400.22,1420.56C411.382,1412.54 423.358,1408.53 436.146,1408.53L1006.38,1408.53C1015.29,1408.53 1022.14,1413.02 1026.93,1422.01C1031.72,1430.99 1033.43,1440.57 1032.05,1450.74C1031.72,1453.14 1031.21,1455.53 1030.49,1457.93L976.729,1601.63C975.675,1604.54 974.385,1607.34 972.858,1610.03C985.923,1608.07 999.004,1605.95 1009.43,1603.66C1017.24,1601.95 1023.4,1600.41 1026.04,1598.6C1036.33,1591.19 1045.62,1575.65 1054.65,1552.43C1054.65,1552.43 1214.93,1140.06 1214.93,1140.06C1219.43,1128.46 1222.02,1118.63 1222.55,1110.51C1222.97,1104.02 1222.12,1098.84 1219.36,1095.13C1215.62,1090.12 1208.78,1088.31 1199.32,1088.31C1194.3,1088.31 1188.32,1088.83 1181.39,1089.83L1172.84,1079.09L1178.76,1063.84L1184.41,1058.97C1210.05,1053.13 1251.48,1040.1 1308.72,1019.91L1318.77,1030.29L1181.9,1382.43C1214.2,1360.97 1257.85,1331.64 1312.81,1294.46C1327.16,1284.48 1336.17,1276.04 1339.13,1268.42C1339.98,1266.25 1340.54,1263.7 1340.81,1262.31C1339.86,1261.92 1338.31,1261.32 1336.94,1261C1332.64,1260.02 1326.85,1259.44 1319.57,1259.19L1312.43,1248.37L1317.1,1236.33L1324.51,1231.26L1484.17,1231.26L1491.58,1242.09L1486.59,1254.93L1479.3,1260C1446.82,1260.51 1420.01,1266.02 1398.91,1276.78L1398.64,1276.91C1383.78,1283.8 1343.24,1310.62 1276.91,1357.23L1225.75,1393.03L1286.51,1555.82C1299.82,1592.67 1322.07,1612.84 1353.95,1615.52C1379.82,1614.44 1411.25,1609.95 1423.57,1601.08C1438.53,1589.94 1452.09,1567.7 1464.88,1534.78C1464.88,1534.78 1537.85,1347.05 1537.85,1347.05C1542.34,1335.49 1545.07,1325.68 1545.92,1317.59C1546.69,1310.19 1546.07,1304.54 1542.96,1300.84C1540,1297.32 1535.01,1296.1 1528.35,1296.1C1522.32,1296.1 1513.55,1297.42 1502.01,1299.93L1492.91,1289.28L1498.52,1274.84L1503.76,1270.08C1531.87,1262.09 1574.65,1247.18 1632.09,1225.36L1642.32,1235.67C1642.32,1235.67 1523.83,1540.54 1523.83,1540.54C1516.9,1558.35 1512.74,1572.92 1511.45,1584.28C1510.72,1590.75 1510.89,1596 1512.33,1600.1C1513.69,1604.14 1517.27,1607.07 1522.5,1609.46C1529.13,1612.49 1538.12,1614.42 1549.41,1615.44C1561.29,1614.14 1577.33,1611.56 1590.92,1607.68C1599.45,1605.25 1606.99,1602.44 1611.26,1598.97C1623.23,1588.9 1633.96,1570.88 1643.94,1545.21C1643.94,1545.21 1722.52,1343.04 1722.52,1343.04C1728.97,1326.45 1732.35,1313.22 1732.38,1303.27C1732.4,1297.8 1731.51,1293.57 1728.88,1290.83C1726.34,1288.19 1722.39,1287.28 1717.3,1287.28C1710.88,1287.28 1705,1287.76 1699.68,1288.75L1690.82,1278.05L1696.12,1264.41L1701.25,1259.68C1738.65,1248.48 1776.2,1236.22 1813.9,1222.89L1823.96,1233.27L1801.63,1290.71C1834.26,1267.12 1855.88,1251.99 1866.48,1245.32L1866.7,1245.19C1896.58,1227.72 1922.59,1219.23 1944.56,1219.23C1963.26,1219.23 1977.24,1224.2 1986.77,1233.36C1996.34,1242.58 2001.69,1256.26 2002.05,1274.68C2002.48,1296.61 1995.75,1325.89 1981.55,1362.43C1981.55,1362.43 1905.15,1558.99 1905.15,1558.99C1897.16,1579.56 1895.7,1594.66 1903.28,1604.36C1908.13,1610.58 1916.5,1614.05 1927.99,1615.63L1934.31,1626.38L1929.01,1640.02L1921.6,1645.09L1767.57,1645.09L1760.16,1634.26L1765.46,1620.62L1771.8,1615.63C1789.91,1613.18 1803.9,1608.47 1813.48,1601.23C1828.85,1589.06 1842.12,1567.89 1853.74,1537.99C1853.74,1537.99 1919.22,1369.51 1919.22,1369.51C1926.08,1351.87 1929.89,1336.89 1930.49,1324.54C1931.02,1313.82 1929.14,1305.31 1924.24,1299.19C1917.52,1290.8 1905.62,1287.28 1888.99,1287.28C1864.66,1287.28 1829.74,1306.48 1783.5,1343.57L1694.78,1571.83C1689.66,1584.99 1688.73,1595.23 1693.76,1602.57C1698.97,1610.18 1709.77,1614.03 1725.52,1615.6L1732.14,1626.38L1726.84,1640.02L1719.43,1645.09L1187.5,1645.09ZM2822.89,1262.9L2697.62,1591.01C2694.39,1599.19 2690.16,1606.65 2684.96,1613.4C2700.75,1611.85 2717.78,1609.53 2731.22,1606.44C2739.95,1604.43 2747.05,1602.33 2750.61,1599.57C2764.39,1588.92 2777.43,1566.65 2790.44,1533.18L2892.87,1269.63L2827.49,1269.63L2822.89,1262.9ZM2657.23,1028.66L2409.61,1028.66L2292.16,1339.68L2529.32,1339.68L2657.23,1028.66ZM884.903,1191.86L860.685,1284.79C857.584,1295.7 850.981,1306.29 840.875,1316.54C830.769,1326.78 821.081,1331.96 811.81,1332.07L487.144,1333.06C477.832,1332.57 469.919,1328.62 463.407,1321.2C456.895,1313.79 453.305,1305.32 452.637,1295.79C452.386,1292.21 452.728,1288.82 453.663,1285.6L477.881,1192.67C481.785,1182.19 488.685,1171.7 498.579,1161.19C508.474,1150.69 517.866,1145.42 526.756,1145.39L851.421,1144.4C859.549,1144.53 867.165,1148.39 874.269,1155.99C881.374,1163.58 885.26,1172.14 885.928,1181.67C886.179,1185.25 885.837,1188.64 884.903,1191.86ZM1709.45,1071.21C1714.11,1059.24 1713.95,1048.59 1709.59,1039.28L1709.41,1038.91C1704.3,1029.36 1695.67,1024.28 1683.18,1024.28C1671.06,1024.28 1659.88,1028.91 1649.77,1038.49C1640.01,1048.12 1633.69,1057.12 1630.45,1065.45C1626.46,1075.72 1625.74,1085.36 1628.02,1094.35C1629.73,1100.95 1632.99,1105.77 1637.51,1109.06C1641.84,1112.2 1647.46,1113.98 1654.5,1113.98C1679.66,1113.98 1698.24,1100.06 1709.45,1071.21ZM1146.77,1050.22L576.318,1047.54C566.63,1047.54 559.374,1041.75 554.55,1030.16C549.726,1018.57 548.692,1008.32 551.45,999.41L559.603,973.561C563.151,961.677 570.623,951.575 582.019,943.256C593.416,934.937 605.314,930.778 617.715,930.778L1187.59,933.452C1196.5,933.452 1203.39,939.097 1208.25,950.387C1213.12,961.677 1214.32,972.076 1211.87,981.583L1200.89,1015.45C1197.66,1024.96 1190.65,1033.13 1179.84,1039.96C1169.03,1046.8 1158.01,1050.22 1146.77,1050.22Z"
   style="fill:#141414;fill-rule:nonzero;fill-opacity:1"
   id="path2" />
        </g>
    </g>
    <g
   id="E"
   transform="matrix(0.260158,0,0,0.263959,-186.241,-175.28)"
   style="stroke-width:0.99980306;stroke-miterlimit:4;stroke-dasharray:none;fill:#003a94;fill-opacity:1">
        <path
   d="M717.62,749.618C717.413,748.584 717.277,747.571 717.209,746.58L715.984,726.809C715.268,717.72 718.067,709.993 724.383,703.63C730.698,697.267 738.598,694.086 748.083,694.086L1186.77,694.086C1193.58,694.086 1198.44,700.449 1205.42,709.084C1212.4,717.72 1216.32,725.673 1217.19,732.945L1218.57,758.851C1218.84,766.123 1215.83,772.372 1209.54,777.599C1203.25,782.825 1195.8,785.439 1187.21,785.439C1187.21,785.439 1022.2,784.667 907.285,784.129C878.564,783.995 850.973,795.145 830.616,815.114C810.26,835.083 798.815,862.223 798.815,890.531C798.815,890.531 798.815,890.532 798.815,890.533C798.815,912.9 807.848,934.348 823.921,950.139C839.993,965.931 861.781,974.767 884.475,974.697C935.107,974.542 989.405,974.375 989.405,974.375C995.66,974.476 1002.6,977.43 1010.23,983.239C1017.85,989.048 1023.3,995.597 1026.56,1002.89C1026.61,1002.99 1026.72,1003.22 1026.9,1003.54C1042.58,1037.6 1077.01,1059.47 1114.95,1059.47C1149.2,1059.5 1186.77,1059.5 1186.77,1059.5C1193.58,1059.5 1200.12,1062.93 1206.38,1069.8C1212.63,1076.67 1216.7,1084 1218.58,1091.78C1219.03,1093.62 1219.32,1095.45 1219.47,1097.28L1219.82,1207.19C1219.96,1216.34 1216.51,1224.13 1209.46,1230.54C1202.42,1236.95 1195.04,1240.16 1187.34,1240.16L750.86,1238.79C744.636,1238.79 738.18,1235.38 731.493,1228.57C724.805,1221.75 720.527,1214.48 718.658,1206.75C718.218,1204.93 717.927,1203.12 717.784,1201.3L717.712,1149.83L717.62,1149.83L717.62,749.618Z"
   style="fill:#003a94;fill-rule:nonzero;stroke-width:0.99980306;stroke-miterlimit:4;stroke-dasharray:none;fill-opacity:1"
   id="path7" />
    </g>
</svg>
